# MagicaVoxel @ Ephtracy

# group
o 

# material
mtllib SellingTerminal.mtl
usemtl palette

# normals
vn -1 0 0
vn 1 0 0
vn 0 0 1
vn 0 0 -1
vn 0 -1 0
vn 0 1 0

# texcoords
vt 0.705078 0.5
vt 0.724609 0.5
vt 0.880859 0.5
vt 0.892578 0.5
vt 0.904297 0.5
vt 0.962891 0.5
vt 0.966797 0.5
vt 0.978516 0.5
vt 0.994141 0.5

# verts
v -5 -3 5
v -5 -3 0.2
v -5 -3 -0.3
v -5 -3 -5
v -5 -2.9 5
v -5 -2.9 0.2
v -5 -2.9 -0.2
v -5 -2.9 -0.3
v -5 -2.9 -5
v -5 4.7 5
v -5 4.7 0.2
v -5 4.7 -0.2
v -5 4.7 -5
v -5 5.3 5
v -5 5.3 0.2
v -5 5.3 -0.2
v -5 5.3 -5
v -5 7 5
v -5 7 0.2
v -5 7 -0.2
v -5 7 -5
v 5 -3 5
v 5 -3 0.2
v 5 -3 -0.3
v 5 -3 -5
v 5 -2.9 5
v 5 -2.9 0.2
v 5 -2.9 -0.2
v 5 -2.9 -0.3
v 5 -2.9 -5
v 5 4.7 5
v 5 4.7 0.2
v 5 4.7 -0.2
v 5 4.7 -5
v 5 5.3 5
v 5 5.3 0.2
v 5 5.3 -0.2
v 5 5.3 -5
v 5 7 5
v 5 7 0.2
v 5 7 -0.2
v 5 7 -5
v -5 -3 5
v -5 -2.9 5
v -5 4.7 5
v -5 5.3 5
v -5 7 5
v -1.4 2.2 5
v -1.4 2.6 5
v -1.3 2.3 5
v -1.3 2.5 5
v -0.2 -3 5
v -0.2 -2.9 5
v -0.2 2.2 5
v -0.2 2.6 5
v -0.2 4.7 5
v -0.2 5.3 5
v -0.2 7 5
v 0.3 -3 5
v 0.3 -2.9 5
v 0.3 2.2 5
v 0.3 2.6 5
v 0.3 4.7 5
v 0.3 5.3 5
v 0.3 7 5
v 1.4 2.3 5
v 1.4 2.5 5
v 1.5 2.2 5
v 1.5 2.6 5
v 5 -3 5
v 5 -2.9 5
v 5 4.7 5
v 5 5.3 5
v 5 7 5
v -5 -3 -5
v -5 -2.9 -5
v -5 4.7 -5
v -5 5.3 -5
v -5 7 -5
v -0.2 -3 -5
v -0.2 -2.9 -5
v -0.2 4.7 -5
v -0.2 5.3 -5
v -0.2 7 -5
v 0.3 -3 -5
v 0.3 -2.9 -5
v 0.3 4.7 -5
v 0.3 5.3 -5
v 0.3 7 -5
v 5 -3 -5
v 5 -2.9 -5
v 5 4.7 -5
v 5 5.3 -5
v 5 7 -5
v -5 -3 5
v -0.2 -3 5
v 0.3 -3 5
v 5 -3 5
v -5 -3 0.2
v -0.2 -3 0.2
v 0.3 -3 0.2
v 5 -3 0.2
v -5 -3 -0.3
v -0.2 -3 -0.3
v 0.3 -3 -0.3
v 5 -3 -0.3
v -5 -3 -5
v -0.2 -3 -5
v 0.3 -3 -5
v 5 -3 -5
v -5 7 5
v -0.2 7 5
v 0.3 7 5
v 5 7 5
v -1.7 7 1.8
v -0.2 7 1.8
v 0.3 7 1.8
v 1.7 7 1.8
v -1.5 7 1.6
v 1.5 7 1.6
v -1.3 7 1.4
v 1.3 7 1.4
v -1.1 7 1.2
v 1.1 7 1.2
v -0.9 7 1
v 0.9 7 1
v -5 7 0.2
v -1.7 7 0.2
v 1.7 7 0.2
v 5 7 0.2
v -5 7 -0.2
v -1.7 7 -0.2
v 1.7 7 -0.2
v 5 7 -0.2
v -0.9 7 -1
v 0.9 7 -1
v -1.1 7 -1.2
v 1.1 7 -1.2
v -1.3 7 -1.4
v 1.3 7 -1.4
v -1.5 7 -1.6
v 1.5 7 -1.6
v -1.7 7 -1.8
v -0.2 7 -1.8
v 0.3 7 -1.8
v 1.7 7 -1.8
v -5 7 -5
v -0.2 7 -5
v 0.3 7 -5
v 5 7 -5

# faces
f 5/4/1 2/4/1 1/4/1
f 6/5/1 3/5/1 2/5/1
f 6/4/1 2/4/1 5/4/1
f 7/5/1 3/5/1 6/5/1
f 8/4/1 4/4/1 3/4/1
f 8/5/1 3/5/1 7/5/1
f 9/4/1 4/4/1 8/4/1
f 10/8/1 6/8/1 5/8/1
f 11/3/1 7/3/1 6/3/1
f 11/8/1 6/8/1 10/8/1
f 12/8/1 8/8/1 7/8/1
f 12/3/1 7/3/1 11/3/1
f 12/8/1 9/8/1 8/8/1
f 13/8/1 9/8/1 12/8/1
f 14/1/1 11/1/1 10/1/1
f 15/3/1 12/3/1 11/3/1
f 15/1/1 11/1/1 14/1/1
f 16/1/1 13/1/1 12/1/1
f 16/3/1 12/3/1 15/3/1
f 17/1/1 13/1/1 16/1/1
f 18/8/1 15/8/1 14/8/1
f 19/3/1 16/3/1 15/3/1
f 19/8/1 15/8/1 18/8/1
f 20/8/1 17/8/1 16/8/1
f 20/3/1 16/3/1 19/3/1
f 21/8/1 17/8/1 20/8/1
f 22/4/2 23/4/2 26/4/2
f 23/5/2 24/5/2 27/5/2
f 26/4/2 23/4/2 27/4/2
f 27/5/2 24/5/2 28/5/2
f 24/4/2 25/4/2 29/4/2
f 28/5/2 24/5/2 29/5/2
f 29/4/2 25/4/2 30/4/2
f 26/8/2 27/8/2 31/8/2
f 27/3/2 28/3/2 32/3/2
f 31/8/2 27/8/2 32/8/2
f 28/8/2 29/8/2 33/8/2
f 32/3/2 28/3/2 33/3/2
f 29/8/2 30/8/2 33/8/2
f 33/8/2 30/8/2 34/8/2
f 31/1/2 32/1/2 35/1/2
f 32/3/2 33/3/2 36/3/2
f 35/1/2 32/1/2 36/1/2
f 33/1/2 34/1/2 37/1/2
f 36/3/2 33/3/2 37/3/2
f 37/1/2 34/1/2 38/1/2
f 35/8/2 36/8/2 39/8/2
f 36/3/2 37/3/2 40/3/2
f 39/8/2 36/8/2 40/8/2
f 37/8/2 38/8/2 41/8/2
f 40/3/2 37/3/2 41/3/2
f 41/8/2 38/8/2 42/8/2
f 48/8/3 45/8/3 44/8/3
f 49/8/3 45/8/3 48/8/3
f 50/6/3 49/6/3 48/6/3
f 51/6/3 49/6/3 50/6/3
f 52/4/3 44/4/3 43/4/3
f 53/8/3 48/8/3 44/8/3
f 53/4/3 44/4/3 52/4/3
f 54/6/3 50/6/3 48/6/3
f 54/8/3 48/8/3 53/8/3
f 55/6/3 49/6/3 51/6/3
f 55/8/3 45/8/3 49/8/3
f 56/1/3 46/1/3 45/1/3
f 56/8/3 45/8/3 55/8/3
f 57/8/3 47/8/3 46/8/3
f 57/1/3 46/1/3 56/1/3
f 58/8/3 47/8/3 57/8/3
f 59/5/3 53/5/3 52/5/3
f 60/3/3 54/3/3 53/3/3
f 60/5/3 53/5/3 59/5/3
f 61/6/3 50/6/3 54/6/3
f 61/3/3 54/3/3 60/3/3
f 62/3/3 56/3/3 55/3/3
f 62/6/3 55/6/3 51/6/3
f 62/3/3 57/3/3 56/3/3
f 62/3/3 58/3/3 57/3/3
f 63/3/3 58/3/3 62/3/3
f 64/3/3 58/3/3 63/3/3
f 65/3/3 58/3/3 64/3/3
f 66/6/3 50/6/3 61/6/3
f 66/9/3 51/9/3 50/9/3
f 67/6/3 62/6/3 51/6/3
f 67/9/3 51/9/3 66/9/3
f 68/8/3 61/8/3 60/8/3
f 68/6/3 66/6/3 61/6/3
f 68/6/3 67/6/3 66/6/3
f 69/6/3 62/6/3 67/6/3
f 69/6/3 67/6/3 68/6/3
f 69/8/3 63/8/3 62/8/3
f 70/4/3 60/4/3 59/4/3
f 71/8/3 68/8/3 60/8/3
f 71/4/3 60/4/3 70/4/3
f 71/8/3 69/8/3 68/8/3
f 72/8/3 63/8/3 69/8/3
f 72/8/3 69/8/3 71/8/3
f 72/1/3 64/1/3 63/1/3
f 73/8/3 65/8/3 64/8/3
f 73/1/3 64/1/3 72/1/3
f 74/8/3 65/8/3 73/8/3
f 75/4/4 76/4/4 80/4/4
f 76/8/4 77/8/4 81/8/4
f 80/4/4 76/4/4 81/4/4
f 77/1/4 78/1/4 82/1/4
f 81/8/4 77/8/4 82/8/4
f 78/8/4 79/8/4 83/8/4
f 82/1/4 78/1/4 83/1/4
f 83/8/4 79/8/4 84/8/4
f 80/5/4 81/5/4 85/5/4
f 81/3/4 82/3/4 86/3/4
f 85/5/4 81/5/4 86/5/4
f 82/3/4 83/3/4 86/3/4
f 83/3/4 84/3/4 86/3/4
f 86/3/4 84/3/4 87/3/4
f 87/3/4 84/3/4 88/3/4
f 88/3/4 84/3/4 89/3/4
f 85/4/4 86/4/4 90/4/4
f 86/8/4 87/8/4 91/8/4
f 90/4/4 86/4/4 91/4/4
f 87/1/4 88/1/4 92/1/4
f 91/8/4 87/8/4 92/8/4
f 88/8/4 89/8/4 93/8/4
f 92/1/4 88/1/4 93/1/4
f 93/8/4 89/8/4 94/8/4
f 99/4/5 96/4/5 95/4/5
f 100/5/5 97/5/5 96/5/5
f 100/4/5 96/4/5 99/4/5
f 101/4/5 98/4/5 97/4/5
f 101/5/5 97/5/5 100/5/5
f 102/4/5 98/4/5 101/4/5
f 103/5/5 100/5/5 99/5/5
f 103/5/5 101/5/5 100/5/5
f 103/5/5 102/5/5 101/5/5
f 104/5/5 102/5/5 103/5/5
f 105/5/5 102/5/5 104/5/5
f 106/5/5 102/5/5 105/5/5
f 107/4/5 104/4/5 103/4/5
f 108/5/5 105/5/5 104/5/5
f 108/4/5 104/4/5 107/4/5
f 109/4/5 106/4/5 105/4/5
f 109/5/5 105/5/5 108/5/5
f 110/4/5 106/4/5 109/4/5
f 111/8/6 112/8/6 115/8/6
f 112/3/6 113/3/6 116/3/6
f 115/8/6 112/8/6 116/8/6
f 113/8/6 114/8/6 117/8/6
f 116/3/6 113/3/6 117/3/6
f 117/8/6 114/8/6 118/8/6
f 115/2/6 116/2/6 119/2/6
f 116/2/6 117/2/6 119/2/6
f 117/2/6 118/2/6 119/2/6
f 119/2/6 118/2/6 120/2/6
f 119/7/6 120/7/6 121/7/6
f 121/7/6 120/7/6 122/7/6
f 121/3/6 122/3/6 123/3/6
f 123/3/6 122/3/6 124/3/6
f 123/7/6 124/7/6 125/7/6
f 125/7/6 124/7/6 126/7/6
f 111/8/6 115/8/6 127/8/6
f 115/2/6 119/2/6 128/2/6
f 127/8/6 115/8/6 128/8/6
f 118/8/6 114/8/6 129/8/6
f 120/2/6 118/2/6 129/2/6
f 129/8/6 114/8/6 130/8/6
f 127/3/6 128/3/6 131/3/6
f 128/2/6 119/2/6 132/2/6
f 131/3/6 128/3/6 132/3/6
f 120/2/6 129/2/6 133/2/6
f 129/3/6 130/3/6 133/3/6
f 133/3/6 130/3/6 134/3/6
f 123/7/6 125/7/6 135/7/6
f 125/3/6 126/3/6 135/3/6
f 126/7/6 124/7/6 136/7/6
f 135/3/6 126/3/6 136/3/6
f 123/7/6 135/7/6 137/7/6
f 121/3/6 123/3/6 137/3/6
f 135/7/6 136/7/6 137/7/6
f 136/7/6 124/7/6 138/7/6
f 137/7/6 136/7/6 138/7/6
f 124/3/6 122/3/6 138/3/6
f 121/3/6 137/3/6 139/3/6
f 119/7/6 121/7/6 139/7/6
f 137/3/6 138/3/6 139/3/6
f 138/3/6 122/3/6 140/3/6
f 139/3/6 138/3/6 140/3/6
f 122/7/6 120/7/6 140/7/6
f 119/7/6 139/7/6 141/7/6
f 132/2/6 119/2/6 141/2/6
f 139/7/6 140/7/6 141/7/6
f 140/7/6 120/7/6 142/7/6
f 141/7/6 140/7/6 142/7/6
f 120/2/6 133/2/6 142/2/6
f 132/2/6 141/2/6 143/2/6
f 131/8/6 132/8/6 143/8/6
f 141/2/6 142/2/6 143/2/6
f 143/2/6 142/2/6 144/2/6
f 144/2/6 142/2/6 145/2/6
f 142/2/6 133/2/6 146/2/6
f 145/2/6 142/2/6 146/2/6
f 133/8/6 134/8/6 146/8/6
f 143/8/6 144/8/6 147/8/6
f 131/8/6 143/8/6 147/8/6
f 144/3/6 145/3/6 148/3/6
f 147/8/6 144/8/6 148/8/6
f 145/8/6 146/8/6 149/8/6
f 148/3/6 145/3/6 149/3/6
f 146/8/6 134/8/6 150/8/6
f 149/8/6 146/8/6 150/8/6
